<svg xmlns="http://www.w3.org/2000/svg" viewBox="0 0 120 160">
  <rect width="120" height="160" fill="#ffffff"/>
  <rect x="0" y="0" width="120" height="6" fill="#0a7f7a"/>
  <polygon points="10,14 30,14 20,30" fill="#e9b949"/><polygon points="34,14 54,14 44,30" fill="#2f7fd8"/>
  <polygon points="58,14 78,14 68,30" fill="#e86a6a"/><polygon points="82,14 102,14 92,30" fill="#0a7f7a"/>
  <text x="10" y="44" font-family="Arial" font-size="7.5" font-weight="700" fill="#0d4b40">ORIENTACIÓN</text>
  <text x="10" y="53" font-family="Arial" font-size="7.5" font-weight="700" fill="#0d4b40">VOCACIONAL Y</text>
  <text x="10" y="62" font-family="Arial" font-size="7.5" font-weight="700" fill="#0d4b40">PROFESIONAL</text>
  <g transform="translate(10 72)">
    <polygon points="20,0 40,11 40,34 20,45 0,34 0,11" fill="#2f5d8a"/>
    <polygon points="62,0 82,11 82,34 62,45 42,34 42,11" fill="#3f7fb8"/>
    <polygon points="41,36 61,47 61,70 41,81 21,70 21,47" fill="#5aa0d6"/>
    <circle cx="20" cy="22" r="8" fill="#f2b88d"/><circle cx="62" cy="22" r="8" fill="#f2b88d"/><circle cx="41" cy="58" r="8" fill="#f2b88d"/>
  </g>
  <text x="10" y="154" font-family="Arial" font-size="5.5" fill="#666">Guía NextPath</text>
</svg>
